<svg width="80" height="22" viewBox="0 0 80 22" fill="none" xmlns="http://www.w3.org/2000/svg">
<g clip-path="url(#clip0_283_655)">
<path d="M73.8593 20.36C72.8993 20.36 72.0713 20.208 71.3753 19.904C70.6793 19.592 70.0913 19.172 69.6113 18.644L67.8353 20.24H67.6432V14.888H67.8593C68.0513 15.576 68.3032 16.236 68.6152 16.868C68.9272 17.492 69.3153 18.048 69.7793 18.536C70.2513 19.024 70.8073 19.412 71.4473 19.7C72.0953 19.98 72.8473 20.12 73.7033 20.12C74.5033 20.12 75.1953 19.972 75.7793 19.676C76.3633 19.38 76.8153 18.96 77.1353 18.416C77.4553 17.864 77.6152 17.212 77.6152 16.46C77.6152 15.788 77.4392 15.224 77.0872 14.768C76.7352 14.312 76.2713 13.916 75.6953 13.58C75.1273 13.244 74.4953 12.928 73.7993 12.632C73.1113 12.336 72.4233 12.024 71.7353 11.696C71.0473 11.36 70.4152 10.964 69.8392 10.508C69.2712 10.052 68.8113 9.496 68.4593 8.83999C68.1073 8.176 67.9313 7.36799 67.9313 6.41599C67.9313 5.46399 68.1713 4.64 68.6513 3.94399C69.1393 3.23999 69.7752 2.69999 70.5592 2.324C71.3432 1.94799 72.1952 1.75999 73.1152 1.75999C73.8752 1.75999 74.5673 1.87999 75.1913 2.11999C75.8153 2.35999 76.3673 2.724 76.8473 3.212L78.5753 1.75999H78.7673V6.96799H78.5513C78.2953 5.89599 77.9232 4.992 77.4352 4.256C76.9472 3.52 76.3553 2.96399 75.6593 2.58799C74.9633 2.20399 74.1753 2.01199 73.2952 2.01199C72.2633 2.01199 71.4753 2.28399 70.9313 2.82799C70.3953 3.36399 70.1273 4.06399 70.1273 4.928C70.1273 5.52799 70.2992 6.03999 70.6432 6.464C70.9952 6.87999 71.4513 7.25199 72.0113 7.57999C72.5793 7.89999 73.2033 8.212 73.8833 8.516C74.5633 8.812 75.2393 9.13599 75.9113 9.48799C76.5913 9.83999 77.2152 10.256 77.7832 10.736C78.3512 11.216 78.8073 11.8 79.1513 12.488C79.4953 13.176 79.6673 14.008 79.6673 14.984C79.6673 16.072 79.4192 17.02 78.9232 17.828C78.4272 18.628 77.7393 19.252 76.8593 19.7C75.9873 20.14 74.9873 20.36 73.8593 20.36Z" fill="#6B46C1"/>
<path d="M51.5186 2V19.784H54.3386V20H48.8906V19.784H51.3026V2.216H48.8906V2H51.5186ZM66.0386 2V2.216H63.5186V20.24H63.2306L51.3746 2H55.1306L63.3026 14.864V2.216H60.5186V2H66.0386Z" fill="#6B46C1"/>
<path d="M15.7734 20V19.784H17.9214V2.216H15.7734V2H23.2254V2.216H21.0774V19.784H24.0174C24.9214 19.784 25.6814 19.66 26.2974 19.412C26.9134 19.156 27.4094 18.8 27.7854 18.344C28.1694 17.88 28.4534 17.332 28.6374 16.7C28.8294 16.06 28.9534 15.36 29.0094 14.6H29.2254V20H15.7734Z" fill="#6B46C1"/>
<path d="M7.788 2C9.284 2 10.508 2.208 11.46 2.624C12.412 3.04 13.116 3.628 13.572 4.388C14.028 5.148 14.256 6.048 14.256 7.088C14.256 8.128 14.028 9.016 13.572 9.752C13.116 10.48 12.412 11.04 11.46 11.432C10.508 11.816 9.288 12.008 7.8 12.008H5.304V19.784H7.452V20H0V19.784H2.148V2.216H0V2H7.788ZM5.304 11.792H7.5C8.044 11.792 8.516 11.652 8.916 11.372C9.324 11.084 9.66 10.708 9.924 10.244C10.196 9.772 10.4 9.264 10.536 8.72C10.672 8.168 10.74 7.624 10.74 7.088C10.74 6.552 10.672 6 10.536 5.432C10.4 4.864 10.196 4.336 9.924 3.848C9.66 3.36 9.324 2.968 8.916 2.672C8.516 2.368 8.044 2.216 7.5 2.216H5.304V11.792Z" fill="#6B46C1"/>
<path d="M32.7542 11.8705L30.496 13.9281V15.1942C33.6108 12.4719 37.5042 11.3693 39.0616 11.1583V18.7554L36.6476 21.2878V22L39.6845 21.1295L40.1517 22L40.4632 21.1295L43.5001 22V21.1295L40.9304 18.7554C40.9823 16.7506 41.0862 12.4245 41.0862 11.1583C43.0796 11.1583 47.5233 13.7434 49.496 15.036V13.9281L47.2378 11.8705V10.2086C46.864 9.76547 46.5629 10.024 46.4591 10.2086V11.1583L44.1231 9.17986V7.59712C43.687 6.96403 43.3703 7.33333 43.2665 7.59712V8.38849L40.9304 6.41007V2.61151C40.9304 0.77554 40.4113 0.105516 40.1517 0H39.8403C39.4042 0 39.1394 1.79377 39.0616 2.69065V6.41007L36.6476 8.38849V7.7554C36.1493 7.24892 35.869 7.64988 35.7911 7.91367V9.33813L33.5329 11.1583V10.2086C33.0968 9.76547 32.8321 10.1823 32.7542 10.446V11.8705Z" fill="#6B46C1"/>
</g>
<defs>
<clipPath id="clip0_283_655">
<rect width="80" height="22" fill="white"/>
</clipPath>
</defs>
</svg>
